<svg width="416" height="56" viewBox="0 0 416 56" fill="none" xmlns="http://www.w3.org/2000/svg">
<path d="M97.7182 28.619C97.7182 30.4247 96.7577 31.3467 95.1058 31.3467H76.3962C77.0493 34.8043 80.5837 37.3784 84.195 37.3784C86.4617 37.3784 88.3826 36.5332 89.8809 35.0733C90.4956 34.5354 91.264 34.1512 91.9555 34.1512C93.3385 34.1512 94.4527 35.3422 94.4527 36.7637C94.4527 37.4936 94.299 38.1851 93.7611 38.7614C91.3792 41.3738 87.9984 42.6801 84.2334 42.6801C76.7803 42.6801 70.6719 36.6484 70.6719 29.1953C70.6719 21.7422 76.7035 15.5569 84.195 15.5569C91.6866 15.5569 97.7566 21.5885 97.7566 28.5806L97.7182 28.619ZM76.4346 26.9671H91.9171C91.264 23.5094 87.7295 20.897 84.195 20.897C80.6606 20.897 77.2029 23.5863 76.4346 26.9671Z" fill="url(#paint0_linear_1767_22)"/>
<path d="M127.146 39.4515C127.146 41.1035 126.148 42.1407 124.457 42.1407C122.997 42.1407 121.845 41.1419 121.845 39.4515V39.2978C120.193 41.065 117.081 42.6786 113.969 42.6786C106.093 42.6786 100.407 36.647 100.407 29.1939C100.407 21.7408 106.17 15.5939 113.969 15.5939C117.388 15.5939 120.077 16.8232 121.845 18.821C121.845 17.2458 122.997 16.2086 124.457 16.2086C126.109 16.2086 127.146 17.2843 127.146 18.821V39.4515ZM105.709 29.1939C105.709 33.7272 109.359 37.3769 113.969 37.3769C118.579 37.3769 121.806 33.6888 121.806 29.1939C121.806 24.6989 118.425 20.8956 113.969 20.8956C109.512 20.8956 105.709 24.5837 105.709 29.1939Z" fill="url(#paint1_linear_1767_22)"/>
<path d="M136.559 18.8593C138.364 16.9384 140.401 16.0932 143.09 16.0932C144.627 16.0932 145.779 16.8616 145.779 18.7056C145.779 20.1655 145.049 21.1644 143.474 21.2412C138.172 21.5486 136.905 23.8152 136.905 27.5418V39.6435C136.905 40.9881 135.829 42.1022 134.292 42.1022C132.755 42.1022 131.603 40.9881 131.603 39.605V19.0898C131.603 17.4762 132.294 16.17 134.215 16.17C135.752 16.17 136.444 17.1689 136.559 18.8593Z" fill="url(#paint2_linear_1767_22)"/>
<path d="M154.884 16.401H156.536C158.111 16.401 159.149 17.3999 159.149 19.0903C159.149 20.5502 158.073 21.7027 156.536 21.7027H154.884V33.9581C154.884 36.4168 156.421 36.801 158.073 36.9547C159.494 37.1084 160.301 38.1072 160.301 39.6824C160.301 41.1423 159.225 42.1411 157.228 42.1411C152.925 42.1411 149.621 39.6824 149.621 34.0349V21.7411C148.238 21.5491 147.393 20.4349 147.393 19.1287C147.393 17.6688 148.238 16.6315 149.621 16.5163V8.67901C149.621 7.02703 150.773 5.98975 152.233 5.98975C153.885 5.98975 154.923 6.98862 154.923 8.67901V16.401H154.884Z" fill="url(#paint3_linear_1767_22)"/>
<path d="M168.407 18.2067C169.944 16.6315 172.249 15.5943 174.9 15.5943C181.585 15.5943 185.811 20.6654 185.811 27.3118V39.4903C185.811 41.1423 184.812 42.1796 183.198 42.1796C181.662 42.1796 180.586 41.1807 180.586 39.4903V27.3118C180.586 23.6621 178.435 20.8575 174.631 20.8575C170.828 20.8575 168.407 23.6621 168.407 27.3118V39.4903C168.407 41.1423 167.409 42.1796 165.718 42.1796C164.258 42.1796 163.106 41.1807 163.106 39.4903V8.60217C163.106 6.98862 164.258 5.98975 165.718 5.98975C167.37 5.98975 168.407 6.98862 168.407 8.60217V18.2067Z" fill="url(#paint4_linear_1767_22)"/>
<path d="M226.769 28.6208C226.769 30.4264 225.809 31.3484 224.157 31.3484H205.447C206.1 34.8061 209.635 37.3801 213.246 37.3801C215.512 37.3801 217.433 36.5349 218.932 35.075C219.546 34.5371 220.315 34.153 221.006 34.153C222.389 34.153 223.503 35.3439 223.503 36.7654C223.503 37.4953 223.35 38.1869 222.812 38.7631C220.43 41.3756 217.049 42.6818 213.284 42.6818C205.831 42.6818 199.723 36.6501 199.723 29.197C199.723 21.7439 205.793 15.597 213.284 15.597C220.776 15.597 226.846 21.6287 226.846 28.6208H226.769ZM205.485 26.9688H220.968C220.315 23.5112 216.78 20.8987 213.246 20.8987C209.711 20.8987 206.254 23.588 205.485 26.9688Z" fill="white"/>
<path d="M245.292 18.783C245.292 19.3208 245.138 19.9739 244.754 20.5886L239.452 28.4643L245.637 37.7231C246.06 38.3377 246.175 38.8372 246.175 39.5287C246.175 40.9886 245.023 42.1027 243.601 42.1027C242.449 42.1027 241.834 41.6801 241.219 40.6812L236.379 32.8824L231.615 40.6812C230.962 41.6801 230.078 42.1027 229.156 42.1027C227.811 42.1027 226.582 40.9886 226.582 39.5287C226.582 38.9909 226.736 38.453 227.081 37.8767L233.382 28.4259L228.042 20.5886C227.619 19.9739 227.504 19.3592 227.504 18.783C227.504 17.3231 228.695 16.1705 230.078 16.1705C230.808 16.1705 231.73 16.5547 232.345 17.4767L236.417 24.0078L240.489 17.5152C241.104 16.5931 241.949 16.1705 242.756 16.1705C244.139 16.1705 245.33 17.3231 245.33 18.783H245.292Z" fill="white"/>
<path d="M269.568 19.823C269.99 20.3609 270.183 21.014 270.183 21.5134C270.183 22.9733 268.838 24.2795 267.455 24.2795C266.84 24.2795 266.264 24.049 265.688 23.5112C264.112 21.8976 261.999 20.8987 259.733 20.8987C255.123 20.8987 251.473 24.5869 251.473 29.197C251.473 33.8072 255.123 37.3801 259.733 37.3801C261.999 37.3801 264.112 36.4965 265.572 34.9213C266.187 34.3066 266.763 34.153 267.416 34.153C268.838 34.153 270.221 35.3439 270.221 36.8422C270.221 37.4953 269.914 38.1484 269.376 38.6863C266.879 41.2603 263.383 42.6818 259.694 42.6818C252.241 42.6818 246.133 36.6501 246.133 29.197C246.133 21.7439 252.203 15.597 259.694 15.597C263.575 15.597 267.263 17.0569 269.491 19.823H269.568Z" fill="white"/>
<path d="M279.173 18.2067C280.709 16.6315 283.015 15.5943 285.665 15.5943C292.35 15.5943 296.576 20.6654 296.576 27.3118V39.4903C296.576 41.1423 295.577 42.1796 293.964 42.1796C292.427 42.1796 291.351 41.1807 291.351 39.4903V27.3118C291.351 23.6621 289.2 20.8575 285.397 20.8575C281.593 20.8575 279.173 23.6621 279.173 27.3118V39.4903C279.173 41.1423 278.174 42.1796 276.484 42.1796C275.024 42.1796 273.871 41.1807 273.871 39.4903V8.60217C273.871 6.98862 275.024 5.98975 276.484 5.98975C278.135 5.98975 279.173 6.98862 279.173 8.60217V18.2067Z" fill="white"/>
<path d="M326.969 39.4547C326.969 41.1066 325.971 42.1439 324.28 42.1439C322.82 42.1439 321.668 41.1451 321.668 39.4547V39.301C320.016 41.0682 316.904 42.6818 313.792 42.6818C305.916 42.6818 300.23 36.6501 300.23 29.197C300.23 21.7439 305.993 15.597 313.792 15.597C317.211 15.597 319.901 16.8264 321.668 18.8242C321.668 17.249 322.82 16.2117 324.28 16.2117C325.932 16.2117 326.969 17.2874 326.969 18.8242V39.4547ZM305.532 29.197C305.532 33.7304 309.182 37.3801 313.792 37.3801C318.402 37.3801 321.629 33.6919 321.629 29.197C321.629 24.7021 318.249 20.8987 313.792 20.8987C309.336 20.8987 305.532 24.5869 305.532 29.197Z" fill="white"/>
<path d="M336.339 18.4754C337.953 16.7082 340.335 15.5557 343.216 15.5557C349.901 15.5557 354.127 20.6268 354.127 27.2732V39.4901C354.127 41.1421 353.128 42.1025 351.515 42.1025C349.978 42.1025 348.902 41.1421 348.902 39.4901V27.2732C348.902 23.6619 346.674 20.8189 342.947 20.8189C339.221 20.8189 336.724 23.6235 336.724 27.2732V39.4901C336.724 41.1421 335.725 42.1025 334.034 42.1025C332.574 42.1025 331.422 41.1421 331.422 39.4901V18.4754C331.422 17.054 332.421 16.1704 333.689 16.1704C335.225 16.1704 336.07 16.9003 336.378 18.4754H336.339Z" fill="white"/>
<path d="M379.407 19.1669C379.56 17.1307 380.329 16.1703 382.25 16.1703C383.556 16.1703 384.516 17.0923 384.516 18.4754V40.1816C384.516 46.9047 380.559 53.6663 370.955 53.6663C369.072 53.6663 368.112 52.6674 368.112 50.977C368.112 49.2866 369.111 48.2878 370.801 48.2878C377.255 48.2878 379.138 44.2923 379.138 39.3364C377.563 41.4109 374.95 42.6019 371.339 42.6019C364.308 42.6019 357.777 36.5319 357.777 29.0403C357.777 21.5488 364.27 15.4788 371.339 15.4788C374.604 15.4788 377.755 17.246 379.407 19.0901V19.1669ZM379.176 29.1172C379.176 24.5454 375.795 20.8573 371.339 20.8573C366.882 20.8573 363.079 24.5454 363.079 29.1172C363.079 33.6889 366.729 37.3771 371.339 37.3771C375.949 37.3771 379.176 33.6889 379.176 29.1172Z" fill="white"/>
<path d="M415.171 28.6208C415.171 30.4264 414.211 31.3484 412.559 31.3484H393.849C394.502 34.8061 398.037 37.3801 401.648 37.3801C403.915 37.3801 405.836 36.5349 407.334 35.075C407.949 34.5371 408.717 34.153 409.409 34.153C410.792 34.153 411.906 35.3439 411.906 36.7654C411.906 37.4953 411.752 38.1869 411.214 38.7631C408.832 41.3756 405.452 42.6818 401.687 42.6818C394.233 42.6818 388.125 36.6501 388.125 29.197C388.125 21.7439 394.195 15.597 401.687 15.597C409.178 15.597 415.248 21.6287 415.248 28.6208H415.171ZM393.888 26.9688H409.37C408.717 23.5112 405.183 20.8987 401.648 20.8987C398.114 20.8987 394.656 23.588 393.888 26.9688Z" fill="white"/>
<path d="M6.35729 28.0162C6.35684 30.2008 6.67642 32.4023 7.33512 34.5496L45.1355 12.7255C43.6053 11.0814 41.8585 9.70391 39.9663 8.61199L6.35729 28.0162Z" fill="url(#paint5_linear_1767_22)"/>
<path d="M35.1413 6.53726C29.4514 4.84497 23.1042 5.40469 17.5575 8.60708C12.0108 11.8095 8.35239 17.0265 6.97302 22.8002L35.1413 6.53726Z" fill="url(#paint6_linear_1767_22)"/>
<path d="M47.7197 16.094L8.96016 38.4718C9.08888 38.7147 9.22251 38.9562 9.3611 39.1963C10.2775 40.7835 11.3589 42.2162 12.5711 43.485L50.2558 21.7277C49.7631 20.0435 49.0631 18.3907 48.1467 16.8034C48.0081 16.5634 47.8657 16.3269 47.7197 16.094Z" fill="url(#paint7_linear_1767_22)"/>
<path d="M51.0727 26.1165L15.9634 46.3868C18.0399 47.8292 20.3359 48.9003 22.7427 49.5708L50.4405 33.5795C51.0632 31.1599 51.2836 28.636 51.0727 26.1165Z" fill="url(#paint8_linear_1767_22)"/>
<path d="M47.6229 40.0666L29.7695 50.3743C33.2428 50.2196 36.7313 49.2511 39.9503 47.3926C43.1693 45.5342 45.7523 42.9972 47.6229 40.0666Z" fill="url(#paint9_linear_1767_22)"/>
<path d="M43.3171 4.08458C41.8645 3.20185 40.3391 2.45636 38.7623 1.85385L1.10648 23.5944C0.839846 25.2613 0.722764 26.9551 0.760965 28.6544L43.3171 4.08458Z" fill="url(#paint10_linear_1767_22)"/>
<path d="M3.11693 39.2525C2.53365 37.9281 2.06116 36.5775 1.69635 35.2123L48.5287 8.1736C49.5286 9.17214 50.462 10.2566 51.3174 11.424L3.11693 39.2525Z" fill="url(#paint11_linear_1767_22)"/>
<path d="M8.97912 47.8264C7.97922 46.8279 7.04582 45.7434 6.19044 44.576L54.3909 16.7475C54.9742 18.0719 55.4467 19.4225 55.8115 20.7877L8.97912 47.8264Z" fill="url(#paint12_linear_1767_22)"/>
<path d="M18.7455 54.1462C17.1687 53.5436 15.6433 52.7982 14.1908 51.9154L56.7469 27.3456C56.7851 29.0449 56.668 30.7387 56.4013 32.4056L18.7455 54.1462Z" fill="url(#paint13_linear_1767_22)"/>
<path d="M42.7516 52.2447C38.0563 54.9555 32.9022 56.1516 27.8551 55.9847L53.4388 41.214C51.0598 45.6684 47.4468 49.5339 42.7516 52.2447Z" fill="url(#paint14_linear_1767_22)"/>
<path d="M4.06903 14.786L29.6527 0.0152934C24.6056 -0.151611 19.4515 1.04453 14.7562 3.75534C10.061 6.46614 6.44806 10.3316 4.06903 14.786Z" fill="url(#paint15_linear_1767_22)"/>
<defs>
<linearGradient id="paint0_linear_1767_22" x1="159.326" y1="40.3229" x2="151.572" y2="-1.75042" gradientUnits="userSpaceOnUse">
<stop stop-color="#12D753"/>
<stop offset="1" stop-color="#2BC8A8"/>
</linearGradient>
<linearGradient id="paint1_linear_1767_22" x1="159.326" y1="40.3229" x2="151.572" y2="-1.75042" gradientUnits="userSpaceOnUse">
<stop stop-color="#12D753"/>
<stop offset="1" stop-color="#2BC8A8"/>
</linearGradient>
<linearGradient id="paint2_linear_1767_22" x1="159.326" y1="40.3229" x2="151.572" y2="-1.75042" gradientUnits="userSpaceOnUse">
<stop stop-color="#12D753"/>
<stop offset="1" stop-color="#2BC8A8"/>
</linearGradient>
<linearGradient id="paint3_linear_1767_22" x1="159.326" y1="40.3229" x2="151.572" y2="-1.75042" gradientUnits="userSpaceOnUse">
<stop stop-color="#12D753"/>
<stop offset="1" stop-color="#2BC8A8"/>
</linearGradient>
<linearGradient id="paint4_linear_1767_22" x1="159.326" y1="40.3229" x2="151.572" y2="-1.75042" gradientUnits="userSpaceOnUse">
<stop stop-color="#12D753"/>
<stop offset="1" stop-color="#2BC8A8"/>
</linearGradient>
<linearGradient id="paint5_linear_1767_22" x1="43.8728" y1="52.4023" x2="15.0956" y2="2.64955" gradientUnits="userSpaceOnUse">
<stop stop-color="#12D753"/>
<stop offset="1" stop-color="#2BC8A8"/>
</linearGradient>
<linearGradient id="paint6_linear_1767_22" x1="43.8728" y1="52.4023" x2="15.0956" y2="2.64955" gradientUnits="userSpaceOnUse">
<stop stop-color="#12D753"/>
<stop offset="1" stop-color="#2BC8A8"/>
</linearGradient>
<linearGradient id="paint7_linear_1767_22" x1="43.8728" y1="52.4023" x2="15.0956" y2="2.64955" gradientUnits="userSpaceOnUse">
<stop stop-color="#12D753"/>
<stop offset="1" stop-color="#2BC8A8"/>
</linearGradient>
<linearGradient id="paint8_linear_1767_22" x1="43.8728" y1="52.4023" x2="15.0956" y2="2.64955" gradientUnits="userSpaceOnUse">
<stop stop-color="#12D753"/>
<stop offset="1" stop-color="#2BC8A8"/>
</linearGradient>
<linearGradient id="paint9_linear_1767_22" x1="43.8728" y1="52.4023" x2="15.0956" y2="2.64955" gradientUnits="userSpaceOnUse">
<stop stop-color="#12D753"/>
<stop offset="1" stop-color="#2BC8A8"/>
</linearGradient>
<linearGradient id="paint10_linear_1767_22" x1="43.8728" y1="52.4023" x2="15.0956" y2="2.64955" gradientUnits="userSpaceOnUse">
<stop stop-color="#12D753"/>
<stop offset="1" stop-color="#2BC8A8"/>
</linearGradient>
<linearGradient id="paint11_linear_1767_22" x1="43.8728" y1="52.4023" x2="15.0956" y2="2.64955" gradientUnits="userSpaceOnUse">
<stop stop-color="#12D753"/>
<stop offset="1" stop-color="#2BC8A8"/>
</linearGradient>
<linearGradient id="paint12_linear_1767_22" x1="43.8728" y1="52.4023" x2="15.0956" y2="2.64955" gradientUnits="userSpaceOnUse">
<stop stop-color="#12D753"/>
<stop offset="1" stop-color="#2BC8A8"/>
</linearGradient>
<linearGradient id="paint13_linear_1767_22" x1="43.8728" y1="52.4023" x2="15.0956" y2="2.64955" gradientUnits="userSpaceOnUse">
<stop stop-color="#12D753"/>
<stop offset="1" stop-color="#2BC8A8"/>
</linearGradient>
<linearGradient id="paint14_linear_1767_22" x1="43.8728" y1="52.4023" x2="15.0956" y2="2.64955" gradientUnits="userSpaceOnUse">
<stop stop-color="#12D753"/>
<stop offset="1" stop-color="#2BC8A8"/>
</linearGradient>
<linearGradient id="paint15_linear_1767_22" x1="43.8728" y1="52.4023" x2="15.0956" y2="2.64955" gradientUnits="userSpaceOnUse">
<stop stop-color="#12D753"/>
<stop offset="1" stop-color="#2BC8A8"/>
</linearGradient>
</defs>
</svg>
